<svg width="96" height="96" xmlns="http://www.w3.org/2000/svg" xmlns:xlink="http://www.w3.org/1999/xlink" xml:space="preserve" overflow="hidden"><g transform="translate(-592 -312)"><path d="M650.9 348 647.9 350.9 650.1 353.1 653 350.1 655.9 353.1 658.1 350.9 655.1 348 658.1 345.1 655.9 342.9 653 345.9 650.1 342.9 647.9 345.1Z" fill="#0989B1"/><path d="M647.9 357.1 650.9 360 647.9 362.9 650.1 365.1 653 362.1 655.9 365.1 658.1 362.9 655.1 360 658.1 357.1 655.9 354.9 653 357.9 650.1 354.9Z" fill="#0989B1"/><path d="M615 332 626 332 626 338 654 338 654 332 665 332 665 394 615 394 615 332ZM640.1 324C641.7 324 643 325.4 643 327 643 328.7 641.7 330 640 330 638.3 330 637 328.7 637 327 637 325.3 638.3 324 640.1 324ZM609 330 609 396C609 398.2 610.8 400 613 400L667 400C669.2 400 671 398.2 671 396L671 330C671 327.8 669.2 326 667 326L650 326 650 324C650 321.8 648.2 320 646 320L634 320C631.8 320 630 321.8 630 324L630 326 613 326C610.8 326 609 327.8 609 330Z" fill="#0989B1"/><path d="M621 346 638 346 638 350 621 350Z" fill="#0989B1"/><path d="M621 358 638 358 638 362 621 362Z" fill="#0989B1"/><path d="M621 370 638 370 638 374 621 374Z" fill="#0989B1"/><path d="M621 382 638 382 638 386 621 386Z" fill="#0989B1"/><path d="M649.5 368.5 656.5 368.5 656.5 375.5 649.5 375.5Z" fill="#0989B1"/><path d="M649.5 380.5 656.5 380.5 656.5 387.5 649.5 387.5Z" fill="#0989B1"/></g></svg>